<?xml version="1.0" encoding="UTF-8"?>
<svg width="32" height="32" viewBox="0 0 32 32" xmlns="http://www.w3.org/2000/svg">
  <!-- Background with rounded corners -->
  <rect width="32" height="32" rx="6" fill="url(#gradient)"/>
  
  <!-- Chef Hat -->
  <path d="M6 12h20v2c0 4.97-4.03 9-9 9s-9-4.03-9-9v-2z" fill="white"/>
  <path d="M6 12h20v1c0 4.97-4.03 9-9 9s-9-4.03-9-9v-1z" fill="#f8fafc" fill-opacity="0.8"/>
  <path d="M8 14h16c0 3.31-2.69 6-6 6s-6-2.69-6-6z" fill="white"/>
  <path d="M10 10h12v2H10z" fill="white"/>
  <path d="M10 10h12v1H10z" fill="#f8fafc" fill-opacity="0.8"/>
  
  <defs>
    <linearGradient id="gradient" x1="0%" y1="0%" x2="100%" y2="100%">
      <stop offset="0%" stop-color="#7c3aed"/>
      <stop offset="100%" stop-color="#6d28d9"/>
    </linearGradient>
  </defs>
</svg>
